<svg xmlns="http://www.w3.org/2000/svg" viewBox="0 0 70.48 69.09"><defs><style>.cls-1{fill:#b0cee6;}.cls-2,.cls-3{fill:#fff;}.cls-3{opacity:0.6;}</style></defs><title>Recurso 19</title><g id="Capa_2" data-name="Capa 2"><g id="Capa_2-2" data-name="Capa 2"><rect class="cls-1" width="70.48" height="69.09" rx="16.46"/><path class="cls-2" d="M55.4,15.5H39.72a2.24,2.24,0,0,0-1.58.66l-2.9,2.9-2.9-2.9a2.24,2.24,0,0,0-1.58-.66H15.08a2.24,2.24,0,0,0-2.24,2.24V46.87a2.24,2.24,0,0,0,2.24,2.24H29.83l3.82,3.82a2.25,2.25,0,0,0,1.59.66,2.23,2.23,0,0,0,1.58-.66l3.83-3.82H55.4a2.24,2.24,0,0,0,2.24-2.24V17.74A2.24,2.24,0,0,0,55.4,15.5ZM30.76,44.63H17.32V20H29.83L33,23.15V45.94l-.66-.66A2.23,2.23,0,0,0,30.76,44.63Zm22.4,0H39.72a2.23,2.23,0,0,0-1.58.65l-.66.66V23.15L40.65,20H53.16Z"/><path class="cls-3" d="M30.76,44.63H17.32V20H29.83L33,23.15V45.94l-.66-.66A2.23,2.23,0,0,0,30.76,44.63Z"/><path class="cls-3" d="M53.16,44.63H39.72a2.23,2.23,0,0,0-1.58.65l-.66.66V23.15L40.65,20H53.16Z"/></g></g></svg>